# xmcd
#
# Track frame offsets: 
#        150
#        14659
#        27718
#        39474
#        54134
#        69844
#        84061
#        97621
#        112005
#        123024
#        136991
#        150513
#
# Disc length: 2142 seconds
#
# Revision: 0
# Processed by: cddbd v1.5.2PL0 Copyright (c) Steve Scherf et al.
# Submitted via: ExactAudioCopyFreeDBPlugin 1.0
#
DISCID=85085c0c
DTITLE=Temperamental - Don Cavalli
DYEAR=2013
DGENRE=Folk/Rock
TTITLE0=Temperamental
TTITLE1=Garden of Love
TTITLE2=Me and my Baby
TTITLE3=Santa Rita
TTITLE4=Gonna Love You
TTITLE5=The Greatest
TTITLE6=Voice of the Voiceless
TTITLE7=Feel not welcome
TTITLE8=You and my Zundapp
TTITLE9=Birthday Suit
TTITLE10=Say Little Girl
TTITLE11=Row my Boat
EXTD=
EXTT0=
EXTT1=
EXTT2=
EXTT3=
EXTT4=
EXTT5=
EXTT6=
EXTT7=
EXTT8=
EXTT9=
EXTT10=
EXTT11=
PLAYORDER=
